Coordinates
version=1
nRows=24
nColumns=22
inDegrees=yes

Units are S.I. units (second, meters, Newtons, ...)
If the header above contains a line with 'inDegrees', this indicates whether rotational values are in degrees (yes) or radians (no).

endheader
time	pelvis_tilt	pelvis_list	pelvis_rotation	pelvis_tx	pelvis_ty	pelvis_tz	hip_flexion_r	hip_adduction_r	hip_rotation_r	knee_angle_r	ankle_angle_r	subtalar_angle_r	hip_flexion_l	hip_adduction_l	hip_rotation_l	knee_angle_l	ankle_angle_l	subtalar_angle_l	lumbar_extension	lumbar_bending	lumbar_rotation
      3.82000000	     -5.22078305	     -1.76108157	     -0.12934925	     -0.65333247	      0.94603209	     -0.16050889	      6.31591175	      5.23172139	     -4.16208921	    -18.14014252	     16.87696659	     -5.75396535	     27.34302566	     -6.94088911	     -1.61374339	    -38.67667472	      7.41020221	      2.54527092	     -8.55489164	     -0.38250791	      4.95894860
      3.83000000	     -5.12387961	     -1.91378181	     -0.13882508	     -0.65562343	      0.94615049	     -0.16018200	      6.34559756	      5.42713022	     -4.13191592	    -18.10900283	     16.76241072	     -5.83079560	     26.86221101	     -7.39214606	     -1.81433158	    -39.67286736	      7.74264234	      2.30823913	     -8.46094180	     -0.27932323	      4.95497522
      3.84000000	     -5.02235609	     -2.07593041	     -0.15126571	     -0.65778062	      0.94623993	     -0.15995195	      6.36962746	      5.62578467	     -4.09774316	    -18.08864849	     16.62729955	     -5.93733918	     26.32777421	     -7.84241946	     -2.00444046	    -40.57482169	      8.01206778	      2.01083036	     -8.36868525	     -0.15404514	      4.94402494
      3.85000000	     -4.92567368	     -2.24213348	     -0.15484319	     -0.65980704	      0.94628484	     -0.15982634	      6.40145085	      5.82042947	     -4.08274979	    -18.08765577	     16.50082659	     -6.04210055	     25.75469714	     -8.27668042	     -2.17130378	    -41.37819656	      8.25920827	      1.69156747	     -8.26671155	     -0.01687255	      4.92306560
      3.86000000	     -4.83466190	     -2.41188222	     -0.14193765	     -0.66171111	      0.94629889	     -0.15982017	      6.43689678	      6.00973180	     -4.08730051	    -18.09602537	     16.37959420	     -6.13167205	     25.14869647	     -8.69300784	     -2.32103318	    -42.07656619	      8.48507700	      1.37556275	     -8.15412159	      0.13425743	      4.87315621
      3.87000000	     -4.74443437	     -2.58637881	     -0.10538927	     -0.66348109	      0.94630688	     -0.15995199	      6.45833576	      6.19452582	     -4.11144817	    -18.09278350	     16.25659039	     -6.21538504	     24.50526273	     -9.08896198	     -2.45701914	    -42.65997451	      8.68021069	      1.04933919	     -8.03676088	      0.30368577	      4.78782375
      3.88000000	     -4.66299196	     -2.76408339	     -0.03952458	     -0.66513366	      0.94629916	     -0.16021662	      6.47423910	      6.37291217	     -4.16268967	    -18.07706416	     16.14276322	     -6.27640759	     23.83968016	     -9.46058131	     -2.57476861	    -43.12432362	      8.86461225	      0.75431492	     -7.90622245	      0.48495889	      4.66375428
      3.89000000	     -4.56556181	     -2.92858745	      0.05413814	     -0.66664920	      0.94633985	     -0.16064552	      6.44786742	      6.52247300	     -4.25443445	    -18.03114521	     16.03226287	     -6.35331641	     23.11626695	     -9.79027092	     -2.69830891	    -43.44589329	      8.96623717	      0.41990968	     -7.79006943	      0.66537153	      4.50171672
      3.90000000	     -4.52978338	     -3.10646554	      0.17077378	     -0.66810966	      0.94627289	     -0.16118098	      6.49309039	      6.67812938	     -4.36813544	    -18.00253459	     15.94791148	     -6.37123289	     22.44187711	    -10.10493508	     -2.79854443	    -43.64569530	      9.13390519	      0.25650386	     -7.60343192	      0.86514971	      4.31512490
      3.91000000	     -4.44585304	     -3.27296602	      0.33145654	     -0.66944621	      0.94632631	     -0.16188702	      6.43373398	      6.81726814	     -4.46082168	    -17.89203478	     15.82953943	     -6.39704384	     21.67728842	    -10.36834439	     -2.88360498	    -43.67329576	      9.20105676	      0.07019445	     -7.47271747	      1.06585118	      4.04092166
      3.92000000	     -4.42202024	     -3.43114048	      0.48359989	     -0.67073921	      0.94628586	     -0.16269309	      6.46305430	      6.93025679	     -4.62053061	    -17.82875298	     15.74092569	     -6.41118206	     20.94349518	    -10.60514854	     -3.00457231	    -43.53981922	      9.28887622	      0.01277182	     -7.27435438	      1.26161484	      3.80869464
      3.93000000	     -4.36925561	     -3.57254948	      0.65749879	     -0.67195990	      0.94631947	     -0.16361661	      6.42806495	      7.02533903	     -4.73694495	    -17.71477421	     15.65772718	     -6.42512471	     20.13897894	    -10.79400072	     -3.13175986	    -43.21466938	      9.33807446	      0.09234508	     -7.11519971	      1.44395247	      3.51815521
      3.94000000	     -4.35032131	     -3.70584200	      0.81669683	     -0.67315080	      0.94629878	     -0.16461535	      6.44331421	      7.10158910	     -4.87519193	    -17.62866537	     15.58106492	     -6.43187442	     19.33664271	    -10.96157236	     -3.30865280	    -42.70892961	      9.43487075	      0.37100133	     -6.92309477	      1.61857987	      3.25731908
      3.95000000	     -4.34970066	     -3.83181453	      0.96384070	     -0.67431493	      0.94624599	     -0.16568379	      6.48732753	      7.16360479	     -5.00604924	    -17.56214976	     15.51585789	     -6.43065196	     18.52265551	    -11.10900013	     -3.53333091	    -42.01925044	      9.59223134	      0.87227229	     -6.71813548	      1.78589394	      3.01033169
      3.96000000	     -4.36621969	     -3.95583221	      1.09339153	     -0.67544508	      0.94615383	     -0.16680445	      6.55862142	      7.21732255	     -5.13159445	    -17.51568782	     15.46183875	     -6.42061315	     17.70146023	    -11.24802521	     -3.81551918	    -41.15274193	      9.83902140	      1.57370641	     -6.50084744	      1.95022973	      2.78645685
      3.97000000	     -4.38769626	     -4.08027576	      1.20808440	     -0.67653014	      0.94603595	     -0.16797295	      6.64467866	      7.26593206	     -5.25249809	    -17.49199317	     15.41831839	     -6.40244478	     16.86890852	    -11.38326471	     -4.15407041	    -40.12538886	     10.19763735	      2.40869627	     -6.28437004	      2.11491868	      2.58530802
      3.98000000	     -4.41100967	     -4.21050231	      1.30816963	     -0.67758947	      0.94589715	     -0.16918680	      6.74234922	      7.31531117	     -5.37349177	    -17.48711022	     15.37367089	     -6.37606762	     16.03650838	    -11.52131282	     -4.54533951	    -38.96247881	     10.66556735	      3.32144270	     -6.07674095	      2.28606334	      2.40409997
      3.99000000	     -4.42697954	     -4.33835400	      1.39562543	     -0.67859583	      0.94574374	     -0.17044614	      6.83917726	      7.35821050	     -5.48618595	    -17.50280093	     15.34967504	     -6.35085248	     15.20447689	    -11.65218078	     -4.98480991	    -37.69702521	     11.23269057	      4.18292947	     -5.88076987	      2.45455777	      2.24643436
      4.00000000	     -4.43566608	     -4.46788227	      1.47322684	     -0.67959514	      0.94558259	     -0.17174857	      6.94186653	      7.39985750	     -5.59452673	    -17.54338343	     15.32364626	     -6.33084851	     14.39540433	    -11.77533637	     -5.45214141	    -36.37609420	     11.86189355	      4.93647227	     -5.70630999	      2.62521234	      2.10322414
      4.01000000	     -4.43091482	     -4.59563530	      1.55014561	     -0.68058643	      0.94542440	     -0.17310117	      7.04380770	      7.43753253	     -5.69469569	    -17.60896491	     15.27380083	     -6.31985235	     13.62394848	    -11.88308647	     -5.92847283	    -35.05613115	     12.50814643	      5.56802194	     -5.55830014	      2.79626825	      1.95528752
      4.02000000	     -4.41414108	     -4.71622335	      1.61338044	     -0.68155358	      0.94525116	     -0.17448255	      7.14242862	      7.46816689	     -5.77271265	    -17.69671078	     15.29929796	     -6.33492592	     12.89510518	    -11.96513001	     -6.40120116	    -33.77857576	     13.14826636	      5.95375666	     -5.43155552	      2.95841310	      1.85250740
      4.03000000	     -4.37101640	     -4.83625471	      1.68151950	     -0.68253532	      0.94509214	     -0.17590162	      7.23836338	      7.49821721	     -5.84003391	    -17.82845811	     15.30959978	     -6.36516249	     12.22173483	    -12.02634426	     -6.83776799	    -32.60021866	     13.76405770	      6.19098646	     -5.34937564	      3.12069194	      1.74253426
      4.04000000	     -4.30574571	     -4.94967773	      1.75751872	     -0.68349257	      0.94495734	     -0.17733985	      7.31112401	      7.52402814	     -5.89487655	    -17.96224758	     15.31149915	     -6.41016200	     11.60934693	    -12.06458296	     -7.24160864	    -31.53998061	     14.31602873	      6.30829798	     -5.29977743	      3.27307372	      1.61995112
      4.05000000	     -4.21556086	     -5.05911446	      1.83969354	     -0.68444635	      0.94483351	     -0.17880355	      7.37838454	      7.54622017	     -5.93903938	    -18.13498195	     15.33328984	     -6.46618546	     11.06492132	    -12.07959239	     -7.58479291	    -30.62865016	     14.82710614	      6.28070418	     -5.28772641	      3.42118152	      1.50353427
